<svg width="768" height="610" viewBox="0 0 768 610" fill="none" xmlns="http://www.w3.org/2000/svg">
<g clip-path="url(#clip0_10263_45335)">
<mask id="mask0_10263_45335" style="mask-type:alpha" maskUnits="userSpaceOnUse" x="0" y="0" width="768" height="610">
<rect width="768" height="610" fill="#D9D9D9"/>
</mask>
<g mask="url(#mask0_10263_45335)">
<path d="M-393 250L376 -425L381 -420L-388 255L-393 250Z" fill="#F8F8F8"/>
<path d="M-383 260L386 -415L391 -410L-378 265L-383 260Z" fill="#F8F8F8"/>
<path d="M-383 260L386 -415L391 -410L-378 265L-383 260Z" fill="#F8F8F8"/>
<path d="M-373 270L396 -405L401 -400L-368 275L-373 270Z" fill="#F8F8F8"/>
<path d="M-363 280L406 -395L411 -390L-358 285L-363 280Z" fill="#F8F8F8"/>
<path d="M-353 290L416 -385L421 -380L-348 295L-353 290Z" fill="#F8F8F8"/>
<path d="M-343 300L426 -375L431 -370L-338 305L-343 300Z" fill="#F8F8F8"/>
<path d="M-333 310L436 -365L441 -360L-328 315L-333 310Z" fill="#F8F8F8"/>
<path d="M-323 320L446 -355L451 -350L-318 325L-323 320Z" fill="#F8F8F8"/>
<path d="M-313 330L456 -345L461 -340L-308 335L-313 330Z" fill="#F8F8F8"/>
<path d="M-303 340L466 -335L471 -330L-298 345L-303 340Z" fill="#F8F8F8"/>
<path d="M-293 350L476 -325L481 -320L-288 355L-293 350Z" fill="#F8F8F8"/>
<path d="M-283 360L486 -315L491 -310L-278 365L-283 360Z" fill="#F8F8F8"/>
<path d="M-273 370L496 -305L501 -300L-268 375L-273 370Z" fill="#F8F8F8"/>
<path d="M-263 380L506 -295L511 -290L-258 385L-263 380Z" fill="#F8F8F8"/>
<path d="M-253 390L516 -285L521 -280L-248 395L-253 390Z" fill="#F8F8F8"/>
<path d="M-243 400L526 -275L531 -270L-238 405L-243 400Z" fill="#F8F8F8"/>
<path d="M-233 410L536 -265L541 -260L-228 415L-233 410Z" fill="#F8F8F8"/>
<path d="M-223 420L546 -255L551 -250L-218 425L-223 420Z" fill="#F8F8F8"/>
<path d="M-213 430L556 -245L561 -240L-208 435L-213 430Z" fill="#F8F8F8"/>
<path d="M-203 440L566 -235L571 -230L-198 445L-203 440Z" fill="#F8F8F8"/>
<path d="M-193 450L576 -225L581 -220L-188 455L-193 450Z" fill="#F8F8F8"/>
<path d="M-183 460L586 -215L591 -210L-178 465L-183 460Z" fill="#F8F8F8"/>
<path d="M-173 470L596 -205L601 -200L-168 475L-173 470Z" fill="#F8F8F8"/>
<path d="M-163 480L606 -195L611 -190L-158 485L-163 480Z" fill="#F8F8F8"/>
<path d="M-153 490L616 -185L621 -180L-148 495L-153 490Z" fill="#F8F8F8"/>
<path d="M-143 500L626 -175L631 -170L-138 505L-143 500Z" fill="#F8F8F8"/>
<path d="M-133 510L636 -165L641 -160L-128 515L-133 510Z" fill="#F8F8F8"/>
<path d="M-123 520L646 -155L651 -150L-118 525L-123 520Z" fill="#F8F8F8"/>
<path d="M-113 530L656 -145L661 -140L-108 535L-113 530Z" fill="#F8F8F8"/>
<path d="M-103 540L666 -135L671 -130L-98 545L-103 540Z" fill="#F8F8F8"/>
<path d="M-93 550L676 -125L681 -120L-88 555L-93 550Z" fill="#F8F8F8"/>
<path d="M-83 560L686 -115L691 -110L-78 565L-83 560Z" fill="#F8F8F8"/>
<path d="M-73 570L696 -105L701 -100L-68 575L-73 570Z" fill="#F8F8F8"/>
<path d="M-63 580L706 -95L711 -90L-58 585L-63 580Z" fill="#F8F8F8"/>
<path d="M-53 590L716 -85L721 -80L-48 595L-53 590Z" fill="#F8F8F8"/>
<path d="M-43 600L726 -75L731 -70L-38 605L-43 600Z" fill="#F8F8F8"/>
<path d="M-33 610L736 -65L741 -60L-28 615L-33 610Z" fill="#F8F8F8"/>
<path d="M-23 620L746 -55L751 -50L-18 625L-23 620Z" fill="#F8F8F8"/>
<path d="M-13 630L756 -45L761 -40L-8 635L-13 630Z" fill="#F8F8F8"/>
<path d="M-3 640L766 -35L771 -30L2 645L-3 640Z" fill="#F8F8F8"/>
<path d="M7 650L776 -25L781 -20L12 655L7 650Z" fill="#F8F8F8"/>
<path d="M17 660L786 -15L791 -10L22 665L17 660Z" fill="#F8F8F8"/>
<path d="M27 670L796 -5L801 0L32 675L27 670Z" fill="#F8F8F8"/>
<path d="M37 680L806 5L811 10L42 685L37 680Z" fill="#F8F8F8"/>
<path d="M47 690L816 15L821 20L52 695L47 690Z" fill="#F8F8F8"/>
<path d="M57 700L826 25L831 30L62 705L57 700Z" fill="#F8F8F8"/>
<path d="M67 710L836 35L841 40L72 715L67 710Z" fill="#F8F8F8"/>
<path d="M77 720L846 45L851 50L82 725L77 720Z" fill="#F8F8F8"/>
<path d="M87 730L856 55L861 60L92 735L87 730Z" fill="#F8F8F8"/>
<path d="M97 740L866 65L871 70L102 745L97 740Z" fill="#F8F8F8"/>
<path d="M107 750L876 75L881 80L112 755L107 750Z" fill="#F8F8F8"/>
<path d="M117 760L886 85L891 90L122 765L117 760Z" fill="#F8F8F8"/>
<path d="M127 770L896 95L901 100L132 775L127 770Z" fill="#F8F8F8"/>
<path d="M137 780L906 105L911 110L142 785L137 780Z" fill="#F8F8F8"/>
<path d="M147 790L916 115L921 120L152 795L147 790Z" fill="#F8F8F8"/>
<path d="M157 800L926 125L931 130L162 805L157 800Z" fill="#F8F8F8"/>
<path d="M167 810L936 135L941 140L172 815L167 810Z" fill="#F8F8F8"/>
<path d="M177 820L946 145L951 150L182 825L177 820Z" fill="#F8F8F8"/>
<path d="M187 830L956 155L961 160L192 835L187 830Z" fill="#F8F8F8"/>
<path d="M197 840L966 165L971 170L202 845L197 840Z" fill="#F8F8F8"/>
<path d="M207 850L976 175L981 180L212 855L207 850Z" fill="#F8F8F8"/>
<path d="M217 860L986 185L991 190L222 865L217 860Z" fill="#F8F8F8"/>
<path d="M227 870L996 195L1001 200L232 875L227 870Z" fill="#F8F8F8"/>
<path d="M237 880L1006 205L1011 210L242 885L237 880Z" fill="#F8F8F8"/>
<path d="M247 890L1016 215L1021 220L252 895L247 890Z" fill="#F8F8F8"/>
<path d="M257 900L1026 225L1031 230L262 905L257 900Z" fill="#F8F8F8"/>
<path d="M267 910L1036 235L1041 240L272 915L267 910Z" fill="#F8F8F8"/>
<path d="M277 920L1046 245L1051 250L282 925L277 920Z" fill="#F8F8F8"/>
<path d="M287 930L1056 255L1061 260L292 935L287 930Z" fill="#F8F8F8"/>
<path d="M297 940L1066 265L1071 270L302 945L297 940Z" fill="#F8F8F8"/>
<path d="M307 950L1076 275L1081 280L312 955L307 950Z" fill="#F8F8F8"/>
<path d="M317 960L1086 285L1091 290L322 965L317 960Z" fill="#F8F8F8"/>
<path d="M327 970L1096 295L1101 300L332 975L327 970Z" fill="#F8F8F8"/>
<path d="M337 980L1106 305L1111 310L342 985L337 980Z" fill="#F8F8F8"/>
<path d="M347 990L1116 315L1121 320L352 995L347 990Z" fill="#F8F8F8"/>
<path d="M357 1000L1126 325L1131 330L362 1005L357 1000Z" fill="#F8F8F8"/>
<path d="M367 1010L1136 335L1141 340L372 1015L367 1010Z" fill="#F8F8F8"/>
<path d="M377 1020L1146 345L1151 350L382 1025L377 1020Z" fill="#F8F8F8"/>
<path d="M387 1030L1156 355L1161 360L392 1035L387 1030Z" fill="#F8F8F8"/>
</g>
</g>
<defs>
<clipPath id="clip0_10263_45335">
<rect width="768" height="610" fill="white"/>
</clipPath>
</defs>
</svg>
