<svg width="20" height="20" viewBox="0 0 20 20" fill="none" xmlns="http://www.w3.org/2000/svg">
<path d="M12.1409 4.18004C13.032 5.07224 13.5897 6.24338 13.7208 7.49756C13.8518 8.75173 13.5483 10.0129 12.8609 11.07C12.9809 11.17 13.0809 11.28 13.2209 11.38C13.4209 11.54 13.6909 11.74 14.0309 11.97C14.3709 12.21 14.5909 12.36 14.6909 12.44C15.1109 12.75 15.4209 13.01 15.6309 13.22C15.9509 13.54 16.2309 13.87 16.4709 14.22C16.7209 14.57 16.9109 14.91 17.0609 15.26C17.2009 15.61 17.2709 15.94 17.2409 16.26C17.2209 16.58 17.1009 16.85 16.8809 17.07C16.6609 17.29 16.3909 17.41 16.0709 17.43C15.7609 17.45 15.4209 17.39 15.0809 17.24C14.7309 17.1 14.3809 16.9 14.0409 16.65C13.6909 16.41 13.3609 16.13 13.0409 15.81C12.8309 15.6 12.5709 15.29 12.2709 14.88C12.1709 14.75 12.0209 14.53 11.8009 14.22C11.5809 13.9 11.4009 13.65 11.2409 13.44C11.0809 13.24 10.9509 13.09 10.8009 12.94C9.76291 13.4835 8.57858 13.6816 7.42028 13.5053C6.26197 13.329 5.19016 12.7877 4.36086 11.96C2.22086 9.81004 2.22086 6.32004 4.36086 4.18004C4.87148 3.6688 5.47787 3.26324 6.14535 2.98652C6.81282 2.70981 7.5283 2.56738 8.25086 2.56738C8.97342 2.56738 9.6889 2.70981 10.3564 2.98652C11.0238 3.26324 11.6302 3.6688 12.1409 4.18004ZM10.7309 10.54C11.3841 9.88197 11.7508 8.99231 11.7508 8.06504C11.7508 7.13777 11.3841 6.2481 10.7309 5.59004C10.4062 5.2644 10.0204 5.00603 9.59573 4.82974C9.17102 4.65345 8.7157 4.56271 8.25586 4.56271C7.79602 4.56271 7.34069 4.65345 6.91599 4.82974C6.49128 5.00603 6.10553 5.2644 5.78086 5.59004C5.45522 5.91471 5.19685 6.30046 5.02056 6.72517C4.84427 7.14987 4.75353 7.6052 4.75353 8.06504C4.75353 8.52488 4.84427 8.9802 5.02056 9.40491C5.19685 9.82962 5.45522 10.2154 5.78086 10.54C6.10553 10.8657 6.49128 11.124 6.91599 11.3003C7.34069 11.4766 7.79602 11.5674 8.25586 11.5674C8.7157 11.5674 9.17102 11.4766 9.59573 11.3003C10.0204 11.124 10.4062 10.8657 10.7309 10.54Z" fill="#333333"/>
</svg>
