<svg width="193" height="27" viewBox="0 0 193 27" fill="none" xmlns="http://www.w3.org/2000/svg">
<path d="M1 6.77588C0.447715 6.77588 0 7.22359 0 7.77588V19.3273C0 19.8795 0.447715 20.3273 1 20.3273H26.0001C26.5524 20.3273 27.0001 19.8795 27.0001 19.3273V7.77588C27.0001 7.22359 26.5524 6.77588 26.0001 6.77588H1ZM25.3575 17.582C25.3575 18.1343 24.9098 18.582 24.3575 18.582H2.74525C2.19297 18.582 1.74525 18.1343 1.74525 17.582V12.8063C1.74525 12.254 2.19297 11.8063 2.74525 11.8063H24.3575C24.9098 11.8063 25.3575 12.254 25.3575 12.8063V17.582Z" fill="white"/>
<path d="M0 0.999999C0 0.447714 0.447715 0 1 0H26.0001C26.5524 0 27.0001 0.447715 27.0001 1V4.03044C27.0001 4.58272 26.5524 5.03044 26.0001 5.03044H1C0.447715 5.03044 0 4.58272 0 4.03044V0.999999Z" fill="white"/>
<path d="M0 22.9697C0 22.4174 0.447715 21.9697 1 21.9697H26.0001C26.5524 21.9697 27.0001 22.4174 27.0001 22.9697V26.0002C27.0001 26.5524 26.5524 27.0002 26.0001 27.0002H1C0.447715 27.0002 0 26.5524 0 26.0002V22.9697Z" fill="white"/>
<path d="M34 21.2213V3.20824H44.989V4.97831H36.0099V11.1996H43.4229V12.9436H36.0099V19.4512H44.989V21.2213H34Z" fill="white"/>
<path d="M57.3023 12.1367V18.8004C57.3545 19.4425 57.8592 19.8243 58.8163 19.9458L58.738 21.4816C57.3632 21.4816 56.3279 21.1345 55.6318 20.4403C54.0657 21.1345 52.4995 21.4816 50.9334 21.4816C49.7327 21.4816 48.8191 21.1432 48.1927 20.4664C47.5662 19.7896 47.253 18.8178 47.253 17.551C47.253 16.2842 47.5749 15.3557 48.2188 14.7657C48.8626 14.1584 49.8719 13.7852 51.2466 13.6464L55.3447 13.256V12.1367C55.3447 11.2516 55.1533 10.6182 54.7704 10.2364C54.3876 9.85466 53.8655 9.66377 53.2043 9.66377C51.8122 9.66377 50.3679 9.75054 48.8713 9.92408L48.0622 10.0022L47.9839 8.51844C49.898 8.13666 51.5947 7.94577 53.0738 7.94577C54.5529 7.94577 55.6231 8.28416 56.2844 8.96095C56.963 9.63774 57.3023 10.6963 57.3023 12.1367ZM49.2629 17.4469C49.2629 19.0434 49.9241 19.8416 51.2466 19.8416C52.4299 19.8416 53.5958 19.6421 54.7443 19.243L55.3447 19.0347V14.7397L51.4815 15.1041C50.6985 15.1735 50.1329 15.3991 49.7849 15.7809C49.4369 16.1627 49.2629 16.718 49.2629 17.4469Z" fill="white"/>
<path d="M65.2629 9.68981C63.3661 9.68981 62.4178 10.3492 62.4178 11.6681C62.4178 12.2755 62.6353 12.7093 63.0703 12.9696C63.5054 13.2126 64.4972 13.4729 66.046 13.7505C67.5947 14.0108 68.691 14.3839 69.3348 14.8698C69.9787 15.3557 70.3006 16.2668 70.3006 17.603C70.3006 18.9393 69.8656 19.9197 68.9955 20.5445C68.1428 21.1692 66.8899 21.4816 65.2368 21.4816C64.1579 21.4816 62.8876 21.3601 61.4259 21.1171L60.6428 20.987L60.7472 19.295C62.731 19.59 64.2275 19.7375 65.2368 19.7375C66.2461 19.7375 67.0117 19.5813 67.5338 19.269C68.0732 18.9393 68.343 18.4013 68.343 17.6551C68.343 16.8915 68.1167 16.3796 67.6643 16.1193C67.2119 15.8416 66.22 15.5813 64.6887 15.3384C63.1573 15.0954 62.0697 14.7397 61.4259 14.2711C60.782 13.8026 60.4601 12.9349 60.4601 11.6681C60.4601 10.4013 60.9038 9.46421 61.7913 8.85683C62.6962 8.24946 63.8186 7.94577 65.1585 7.94577C66.22 7.94577 67.5512 8.06725 69.1521 8.3102L69.883 8.44035L69.8308 10.1063C67.8992 9.82863 66.3766 9.68981 65.2629 9.68981Z" fill="white"/>
<path d="M71.8676 8.20607H73.8252L77.088 19.5293H77.9494L81.2383 8.20607H83.1959L77.7667 27H75.809L77.5056 21.2213H75.5741L71.8676 8.20607Z" fill="white"/>
<path d="M83.2765 21.2213L87.2702 3.52061H94.1089L98.1026 21.2213H94.5005L93.7957 18.0195H87.5834L86.8786 21.2213H83.2765ZM90.0631 6.48807L88.262 14.8959H93.1171L91.316 6.48807H90.0631Z" fill="white"/>
<path d="M104.907 7.89371C105.812 7.89371 106.969 8.03254 108.378 8.3102L109.083 8.46638L108.979 11.2256C107.604 11.0868 106.586 11.0174 105.925 11.0174C104.724 11.0174 103.924 11.2777 103.523 11.7983C103.141 12.3015 102.949 13.2646 102.949 14.6876C102.949 16.1106 103.141 17.0911 103.523 17.6291C103.924 18.1497 104.733 18.41 105.951 18.41L108.979 18.2017L109.083 20.987C107.221 21.3514 105.803 21.5336 104.829 21.5336C102.897 21.5336 101.505 20.9957 100.652 19.9197C99.817 18.8265 99.3993 17.0824 99.3993 14.6876C99.3993 12.2928 99.8344 10.5662 100.704 9.50759C101.575 8.43167 102.975 7.89371 104.907 7.89371Z" fill="white"/>
<path d="M116.454 7.89371C117.359 7.89371 118.516 8.03254 119.926 8.3102L120.63 8.46638L120.526 11.2256C119.151 11.0868 118.133 11.0174 117.472 11.0174C116.271 11.0174 115.471 11.2777 115.071 11.7983C114.688 12.3015 114.496 13.2646 114.496 14.6876C114.496 16.1106 114.688 17.0911 115.071 17.6291C115.471 18.1497 116.28 18.41 117.498 18.41L120.526 18.2017L120.63 20.987C118.768 21.3514 117.35 21.5336 116.376 21.5336C114.444 21.5336 113.052 20.9957 112.199 19.9197C111.364 18.8265 110.946 17.0824 110.946 14.6876C110.946 12.2928 111.382 10.5662 112.252 9.50759C113.122 8.43167 114.522 7.89371 116.454 7.89371Z" fill="white"/>
<path d="M123.825 9.68981C124.747 8.49241 126.287 7.89371 128.445 7.89371C130.603 7.89371 132.143 8.49241 133.065 9.68981C133.987 10.8698 134.448 12.5358 134.448 14.6876C134.448 19.2516 132.447 21.5336 128.445 21.5336C124.443 21.5336 122.441 19.2516 122.441 14.6876C122.441 12.5358 122.903 10.8698 123.825 9.68981ZM126.513 17.6291C126.879 18.2538 127.523 18.5662 128.445 18.5662C129.367 18.5662 130.002 18.2538 130.35 17.6291C130.716 17.0043 130.899 16.0239 130.899 14.6876C130.899 13.3514 130.716 12.3796 130.35 11.7722C130.002 11.1649 129.367 10.8612 128.445 10.8612C127.523 10.8612 126.879 11.1649 126.513 11.7722C126.165 12.3796 125.991 13.3514 125.991 14.6876C125.991 16.0239 126.165 17.0043 126.513 17.6291Z" fill="white"/>
<path d="M137.012 21.2213V8.20607H140.484V9.58568C141.946 8.718 143.338 8.15401 144.66 7.89371V11.4078C143.251 11.7028 142.041 12.0065 141.032 12.3189L140.51 12.5011V21.2213H137.012Z" fill="white"/>
<path d="M157.818 3V21.2213H154.346V20.6746C153.128 21.2473 152.075 21.5336 151.188 21.5336C149.291 21.5336 147.968 20.987 147.22 19.8937C146.472 18.8004 146.098 17.0738 146.098 14.7137C146.098 12.3362 146.542 10.6095 147.429 9.53362C148.334 8.44035 149.691 7.89371 151.501 7.89371C152.058 7.89371 152.832 7.98048 153.824 8.15401L154.32 8.25813V3H157.818ZM153.955 18.0976L154.32 18.0195V11.1735C153.363 11 152.51 10.9132 151.762 10.9132C150.352 10.9132 149.648 12.1627 149.648 14.6616C149.648 16.0152 149.804 16.9783 150.118 17.551C150.431 18.1236 150.944 18.41 151.658 18.41C152.388 18.41 153.154 18.3059 153.955 18.0976Z" fill="white"/>
<path d="M161.05 21.2213V8.20607H164.548V21.2213H161.05ZM161.05 6.54013V3H164.548V6.54013H161.05Z" fill="white"/>
<path d="M168.484 9.68981C169.406 8.49241 170.946 7.89371 173.104 7.89371C175.262 7.89371 176.802 8.49241 177.724 9.68981C178.647 10.8698 179.108 12.5358 179.108 14.6876C179.108 19.2516 177.107 21.5336 173.104 21.5336C169.102 21.5336 167.101 19.2516 167.101 14.6876C167.101 12.5358 167.562 10.8698 168.484 9.68981ZM171.173 17.6291C171.538 18.2538 172.182 18.5662 173.104 18.5662C174.026 18.5662 174.662 18.2538 175.01 17.6291C175.375 17.0043 175.558 16.0239 175.558 14.6876C175.558 13.3514 175.375 12.3796 175.01 11.7722C174.662 11.1649 174.026 10.8612 173.104 10.8612C172.182 10.8612 171.538 11.1649 171.173 11.7722C170.825 12.3796 170.651 13.3514 170.651 14.6876C170.651 16.0239 170.825 17.0043 171.173 17.6291Z" fill="white"/>
<path d="M185.169 21.2213H181.672V8.20607H185.143V8.93492C186.327 8.24078 187.414 7.89371 188.406 7.89371C190.146 7.89371 191.347 8.40564 192.008 9.4295C192.669 10.4534 193 12.0325 193 14.167V21.2213H189.502V14.2711C189.502 13.1605 189.372 12.3449 189.111 11.8243C188.85 11.2863 188.328 11.0174 187.545 11.0174C186.831 11.0174 186.144 11.1388 185.483 11.3818L185.169 11.4859V21.2213Z" fill="white"/>
</svg>
