<svg width="27" height="27" viewBox="0 0 27 27" fill="none" xmlns="http://www.w3.org/2000/svg">
<path d="M1 6.77588C0.447715 6.77588 0 7.22359 0 7.77588V19.3273C0 19.8795 0.447715 20.3273 1 20.3273H26.0001C26.5524 20.3273 27.0001 19.8795 27.0001 19.3273V7.77588C27.0001 7.22359 26.5524 6.77588 26.0001 6.77588H1ZM25.3575 17.582C25.3575 18.1343 24.9098 18.582 24.3575 18.582H2.74525C2.19297 18.582 1.74525 18.1343 1.74525 17.582V12.8063C1.74525 12.254 2.19297 11.8063 2.74525 11.8063H24.3575C24.9098 11.8063 25.3575 12.254 25.3575 12.8063V17.582Z" fill="#FF5B2E"/>
<path d="M0 0.999999C0 0.447714 0.447715 0 1 0H26.0001C26.5524 0 27.0001 0.447715 27.0001 1V4.03044C27.0001 4.58272 26.5524 5.03044 26.0001 5.03044H1C0.447715 5.03044 0 4.58272 0 4.03044V0.999999Z" fill="#FF5B2E"/>
<path d="M0 22.9697C0 22.4174 0.447715 21.9697 1 21.9697H26.0001C26.5524 21.9697 27.0001 22.4174 27.0001 22.9697V26.0002C27.0001 26.5524 26.5524 27.0002 26.0001 27.0002H1C0.447715 27.0002 0 26.5524 0 26.0002V22.9697Z" fill="#FF5B2E"/>
</svg>
