<svg width="94" height="94" viewBox="0 0 72 72" fill="none" xmlns="http://www.w3.org/2000/svg">
  <path d="M2.66667 18.0688C1.19391 18.0688 0 19.2628 0 20.7355V51.5392C0 53.012 1.19391 54.2059 2.66667 54.2059H69.3336C70.8064 54.2059 72.0003 53.012 72.0003 51.5392V20.7355C72.0003 19.2628 70.8064 18.0688 69.3336 18.0688H2.66667ZM67.62 46.8852C67.62 48.3579 66.4261 49.5519 64.9534 49.5519H7.32068C5.84792 49.5519 4.65401 48.3579 4.65401 46.8852V34.15C4.65401 32.6773 5.84792 31.4833 7.32068 31.4833H64.9534C66.4261 31.4833 67.62 32.6773 67.62 34.15V46.8852Z" fill="#FF5B2E"/>
  <path d="M0 2.66667C0 1.19391 1.19391 0 2.66667 0H69.3336C70.8064 0 72.0003 1.19391 72.0003 2.66667V10.7478C72.0003 12.2206 70.8064 13.4145 69.3336 13.4145H2.66667C1.19391 13.4145 0 12.2206 0 10.7478V2.66667Z" fill="#FF5B2E"/>
  <path d="M0 61.2526C0 59.7798 1.19391 58.5859 2.66667 58.5859H69.3336C70.8064 58.5859 72.0003 59.7798 72.0003 61.2526V69.3338C72.0003 70.8065 70.8064 72.0004 69.3336 72.0004H2.66667C1.19391 72.0004 0 70.8065 0 69.3338V61.2526Z" fill="#FF5B2E"/>
</svg>
